HIERARCHY
ROOT hips
{
  OFFSET 0 10.6860622 2.3727825e-15
  CHANNELS 6 Xposition Yposition Zposition Yrotation Xrotation Zrotation
  JOINT leftUpperLeg
  {
    OFFSET 0.6642549969 -0.9402397400000004 0
    CHANNELS 3 Yrotation Xrotation Zrotation
    JOINT leftLowerLeg
    {
      OFFSET 0 -3.997221335632195 0
      CHANNELS 3 Yrotation Xrotation Zrotation
      JOINT leftFoot
      {
        OFFSET -0.13777839790000004 -4.6145792000000005 -0.22186036399999998
        CHANNELS 3 Yrotation Xrotation Zrotation
        JOINT leftToes
        {
          OFFSET -0.03777410834999995 -0.9130806927000008 0.85230013
          CHANNELS 3 Yrotation Xrotation Zrotation
          End Site
          {
            OFFSET -0.03777410834999995 -0.9130806927000008 0.85230013
          }
        }
      }
    }
  }
  JOINT rightUpperLeg
  {
    OFFSET -0.6642778626 -0.9402397400000004 0
    CHANNELS 3 Yrotation Xrotation Zrotation
    JOINT rightLowerLeg
    {
      OFFSET 0 -3.997221452859387 0
      CHANNELS 3 Yrotation Xrotation Zrotation
      JOINT rightFoot
      {
        OFFSET 0.1377926176 -4.6145792000000005 -0.22185782299999995
        CHANNELS 3 Yrotation Xrotation Zrotation
        JOINT rightToes
        {
          OFFSET 0.037780746850000047 -0.9130806927000008 0.85230167
          CHANNELS 3 Yrotation Xrotation Zrotation
          End Site
          {
            OFFSET 0.037780746850000047 -0.9130806927000008 0.85230167
          }
        }
      }
    }
  }
  JOINT spine
  {
    OFFSET 0 0.13988381660000015 0
    CHANNELS 3 Yrotation Xrotation Zrotation
    JOINT chest
    {
      OFFSET 0 0.6191039003973773 0
      CHANNELS 3 Yrotation Xrotation Zrotation
      JOINT upperChest
      {
        OFFSET 0 0.9855186130586943 0
        CHANNELS 3 Yrotation Xrotation Zrotation
        JOINT leftShoulder
        {
          OFFSET 0.1807663869 1.5087829790000005 0
          CHANNELS 3 Yrotation Xrotation Zrotation
          JOINT leftUpperArm
          {
            OFFSET 0.5985063006419806 0 0
            CHANNELS 3 Yrotation Xrotation Zrotation
            JOINT leftLowerArm
            {
              OFFSET 2.2993332369501065 0 0
              CHANNELS 3 Yrotation Xrotation Zrotation
              JOINT leftHand
              {
                OFFSET 2.395047042602395 0 0
                CHANNELS 3 Yrotation Xrotation Zrotation
                JOINT leftIndexProximal
                {
                  OFFSET 0.5766295810000004 0.04556643899499946 0.17265095988184
                  CHANNELS 3 Yrotation Xrotation Zrotation
                  JOINT leftIndexIntermediate
                  {
                    OFFSET 0.2957229000000008 -0.019352197700001517 -0.007932640616999987
                    CHANNELS 3 Yrotation Xrotation Zrotation
                    JOINT leftIndexDistal
                    {
                      OFFSET 0.19008243099999922 -0.012484908149998475 -0.002786250786000012
                      CHANNELS 3 Yrotation Xrotation Zrotation
                      End Site
                      {
                        OFFSET 0.19008243099999922 -0.012484908149998475 -0.002786250786000012
                      }
                    }
                  }
                }
                JOINT leftMiddleProximal
                {
                  OFFSET 0.5834975091000001 0.0524350405149987 0.02204081888183999
                  CHANNELS 3 Yrotation Xrotation Zrotation
                  JOINT leftMiddleIntermediate
                  {
                    OFFSET 0.33880573540000003 -0.019871473270000717 -0.00000971183179999946
                    CHANNELS 3 Yrotation Xrotation Zrotation
                    JOINT leftMiddleDistal
                    {
                      OFFSET 0.20676022730000088 -0.012221336379999448 0.0001471936708000235
                      CHANNELS 3 Yrotation Xrotation Zrotation
                      End Site
                      {
                        OFFSET 0.20676022730000088 -0.012221336379999448 0.0001471936708000235
                      }
                    }
                  }
                }
                JOINT leftLittleProximal
                {
                  OFFSET 0.5344154683999995 -0.012880921405001189 -0.24414037221816004
                  CHANNELS 3 Yrotation Xrotation Zrotation
                  JOINT leftLittleIntermediate
                  {
                    OFFSET 0.21758961730000093 -0.011650919939999227 0.011893592810000034
                    CHANNELS 3 Yrotation Xrotation Zrotation
                    JOINT leftLittleDistal
                    {
                      OFFSET 0.1475273964999999 -0.008152365682999818 0.006001092492999946
                      CHANNELS 3 Yrotation Xrotation Zrotation
                      End Site
                      {
                        OFFSET 0.1475273964999999 -0.008152365682999818 0.006001092492999946
                      }
                    }
                  }
                }
                JOINT leftRingProximal
                {
                  OFFSET 0.5799399463000003 0.026911854694997794 -0.12150566991816003
                  CHANNELS 3 Yrotation Xrotation Zrotation
                  JOINT leftRingIntermediate
                  {
                    OFFSET 0.26167887460000006 -0.013480186499999602 0.010996293000000053
                    CHANNELS 3 Yrotation Xrotation Zrotation
                    JOINT leftRingDistal
                    {
                      OFFSET 0.17667108799999987 -0.008990287899999228 0.0055541023999999065
                      CHANNELS 3 Yrotation Xrotation Zrotation
                      End Site
                      {
                        OFFSET 0.17667108799999987 -0.008990287899999228 0.0055541023999999065
                      }
                    }
                  }
                }
                JOINT leftThumbProximal
                {
                  OFFSET 0.11018806699999972 -0.09448718900500053 0.17047963138184
                  CHANNELS 3 Yrotation Xrotation Zrotation
                  JOINT leftThumbIntermediate
                  {
                    OFFSET 0.31062601459999983 -0.08126270900000132 0.15443142000000007
                    CHANNELS 3 Yrotation Xrotation Zrotation
                    JOINT leftThumbDistal
                    {
                      OFFSET 0.21627175790000086 -0.08833193599999878 0.018771167799999988
                      CHANNELS 3 Yrotation Xrotation Zrotation
                      End Site
                      {
                        OFFSET 0.21627175790000086 -0.08833193599999878 0.018771167799999988
                      }
                    }
                  }
                }
              }
            }
          }
        }
        JOINT neck
        {
          OFFSET 0 1.5463305265074576 0
          CHANNELS 3 Yrotation Xrotation Zrotation
          JOINT head
          {
            OFFSET 0 0.8456443600000344 0
            CHANNELS 3 Yrotation Xrotation Zrotation
            JOINT leftEye
            {
              OFFSET 0.30408573140000006 0.5104519199999995 0.1276382305
              CHANNELS 3 Yrotation Xrotation Zrotation
              End Site
              {
                OFFSET 0.30408573140000006 0.5104519199999995 0.1276382305
              }
            }
            JOINT rightEye
            {
              OFFSET -0.30409491089999996 0.5104519199999995 0.1276379445
              CHANNELS 3 Yrotation Xrotation Zrotation
              End Site
              {
                OFFSET -0.30409491089999996 0.5104519199999995 0.1276379445
              }
            }
            JOINT jaw
            {
              OFFSET -3.155239131000001e-7 -0.11984121820000082 0.60178107
              CHANNELS 3 Yrotation Xrotation Zrotation
              End Site
              {
                OFFSET -3.155239131000001e-7 -0.11984121820000082 0.60178107
              }
            }
          }
        }
        JOINT rightShoulder
        {
          OFFSET -0.1807303465 1.5087829790000005 0
          CHANNELS 3 Yrotation Xrotation Zrotation
          JOINT rightUpperArm
          {
            OFFSET -0.5985063796536958 0 0
            CHANNELS 3 Yrotation Xrotation Zrotation
            JOINT rightLowerArm
            {
              OFFSET -2.2993322059002854 0 0
              CHANNELS 3 Yrotation Xrotation Zrotation
              JOINT rightHand
              {
                OFFSET -2.395045314457259 0 0
                CHANNELS 3 Yrotation Xrotation Zrotation
                JOINT rightIndexProximal
                {
                  OFFSET -0.5764487688300002 0.0441371204405987 0.17361932004999997
                  CHANNELS 3 Yrotation Xrotation Zrotation
                  JOINT rightIndexIntermediate
                  {
                    OFFSET -0.29573011380000047 -0.01934826376999843 -0.007698921482999974
                    CHANNELS 3 Yrotation Xrotation Zrotation
                    JOINT rightIndexDistal
                    {
                      OFFSET -0.19008373999999884 -0.012503266380000655 -0.0026365778999999897
                      CHANNELS 3 Yrotation Xrotation Zrotation
                      End Site
                      {
                        OFFSET -0.19008373999999884 -0.012503266380000655 -0.0026365778999999897
                      }
                    }
                  }
                }
                JOINT rightMiddleProximal
                {
                  OFFSET -0.5834852037300005 0.05211639405060153 0.02307162440000001
                  CHANNELS 3 Yrotation Xrotation Zrotation
                  JOINT rightMiddleIntermediate
                  {
                    OFFSET -0.33880114510000003 -0.019952774050000954 0.0002455003561999819
                    CHANNELS 3 Yrotation Xrotation Zrotation
                    JOINT rightMiddleDistal
                    {
                      OFFSET -0.20675694929999955 -0.012273788999999091 0.00030209124000002766
                      CHANNELS 3 Yrotation Xrotation Zrotation
                      End Site
                      {
                        OFFSET -0.20675694929999955 -0.012273788999999091 0.00030209124000002766
                      }
                    }
                  }
                }
                JOINT rightLittleProximal
                {
                  OFFSET -0.5346811737299992 -0.011214256288399227 -0.24363941305000003
                  CHANNELS 3 Yrotation Xrotation Zrotation
                  JOINT rightLittleIntermediate
                  {
                    OFFSET -0.21757715980000092 -0.011771559690000988 0.01201554387
                    CHANNELS 3 Yrotation Xrotation Zrotation
                    JOINT rightLittleDistal
                    {
                      OFFSET -0.1475201849000004 -0.00822055339600003 0.006082065407000015
                      CHANNELS 3 Yrotation Xrotation Zrotation
                      End Site
                      {
                        OFFSET -0.1475201849000004 -0.00822055339600003 0.006082065407000015
                      }
                    }
                  }
                }
                JOINT rightRingProximal
                {
                  OFFSET -0.5800810755299999 0.027657985680600072 -0.12066365025000003
                  CHANNELS 3 Yrotation Xrotation Zrotation
                  JOINT rightRingIntermediate
                  {
                    OFFSET -0.26166445029999974 -0.013623118409999302 0.011164098990000045
                    CHANNELS 3 Yrotation Xrotation Zrotation
                    JOINT rightRingDistal
                    {
                      OFFSET -0.17666387530000027 -0.009072900100000503 0.005668185599999959
                      CHANNELS 3 Yrotation Xrotation Zrotation
                      End Site
                      {
                        OFFSET -0.17666387530000027 -0.009072900100000503 0.005668185599999959
                      }
                    }
                  }
                }
                JOINT rightThumbProximal
                {
                  OFFSET -0.10997596379000074 -0.09577489355940072 0.16989765924999997
                  CHANNELS 3 Yrotation Xrotation Zrotation
                  JOINT rightThumbIntermediate
                  {
                    OFFSET -0.31036620999999986 -0.08229339117999834 0.15440884469999996
                    CHANNELS 3 Yrotation Xrotation Zrotation
                    JOINT rightThumbDistal
                    {
                      OFFSET -0.21631306399999906 -0.08825326400000111 0.018656797720000014
                      CHANNELS 3 Yrotation Xrotation Zrotation
                      End Site
                      {
                        OFFSET -0.21631306399999906 -0.08825326400000111 0.018656797720000014
                      }
                    }
                  }
                }
              }
            }
          }
        }
      }
    }
  }
}
MOTION
Frames: 4
Frame Time: 0.03333333333333333
0.040634628385305405 -0.15443931334228544 0.05053756758570671 -2.7901927621487213 -3.8014189603605035 -4.762554923848787 14.919473410430156 -14.019246574797275 8.470018411618916 -0.5693028874881086 18.39956244762825 4.029467430722252 0.3897145696685606 -1.817782841781232 -6.90986431130232 0.000004856431425118096 -4.908778472233486 0.0000016371616138610799 -10.356594463723559 -0.5943480541815126 5.169633737312667 -10.290286951657524 11.11732715160133 -5.81675158328739 -4.198569191313021 -5.85940904959394 4.495482804214268 -0.000007436882233175962 -7.233651768877382 -0.000001621892333337715 1.6983855705459285 3.0881563000002155 2.3627574661969004 1.2395271658599771 1.439257061468361 0.9730534928815746 0 0 0 -17.40249165540264 0.8508686328015861 -13.522812399497598 -15.586377177439097 4.729359246846035 -68.89092186990956 0.0000034877427285964896 -0.000001531683991945715 0.0000015076155896713946 -1.5183539220610716 -32.14424030728196 -4.54842460055697 -0.9980247085146047 0.05592258624995294 -7.857816192486243 1.5308412629649761 0.23395202481604108 -17.378567074555388 0.7164383927709324 0.05031191360374751 -8.036237339319925 2.534827161329768 -0.09035793066555733 -16.021494482375925 1.5340730819100867 0.2349576985498193 -17.41646784414175 1.61985530570792 0.26269912058935646 -18.42412709281593 5.276962486819723 0.8832917321048395 -27.338619259428203 1.5346141086741365 0.23512794778349572 -17.422831940796076 1.457450401161572 0.2115815986771855 -16.52112853668562 3.414681224453123 0.09922294804982655 -21.44096498128105 1.8296686746938335 0.3376929109659141 -20.914317984763517 1.5716992060770254 0.2469215743760953 -17.857684910990944 2.4195516259588614 -0.5515991767253833 4.772334967627578 26.26315091167418 10.769110314624989 21.942809829197707 3.7886115103974154 -13.786312579863353 8.092178110173121 1.0180883487441414 6.624810413359303 2.3154089247802405 0.41165099163048113 -8.000755511033645 10.30754385507939 0 0 0 0 0 0 0 0 0 13.777986553429894 1.4380626825280975 13.224068434836607 -16.830586407574515 -4.069998785425162 64.30629189994023 54.15907411585826 0.3067434466636708 -0.5999746728340097 0.7517594414204416 -21.20349445077428 -7.258482849513369 1.178450586062702 0.5696581543312181 0.11149386512540242 -1.0751319287665786 0.15017299324110686 15.904226895807287 -0.4469743937018643 0.025556616047926157 6.54182693304134 -1.7171338204576323 -0.1086412941631415 9.929552801929503 -1.1288904553921415 0.16592073468510796 16.7221826903125 -1.1949120077416222 0.18637900895088869 17.731411669774392 -4.318505345043366 0.5362168975727566 26.229714866457822 -1.358470071732748 0.24270365393622306 20.2570858303949 -1.299892674345715 0.22159352692739037 19.348153308238313 -2.181069778637618 -0.2420474162956838 20.150902824872375 -1.533540097036195 0.31211843035935144 23.007114357747902 -1.338631883165502 0.23543160027704885 19.94869093803362 0.6486526981209217 -2.0328410361627083 -4.51764661255707 -31.391341786268985 11.304148558021456 -22.444371204887446 -3.843312214578438 -15.542406543684148 -11.626604683219966
0.038609009236097336 -0.15139041655273466 0.04928477108478546 -2.8371466093656417 -3.766549960182862 -4.708285734748113 14.907996926621644 -13.904056397162305 8.406436933709784 -0.4850316447709238 18.136769623220708 4.080925619290045 0.38887466218564837 -1.695925975787578 -6.941732080547326 -0.0000016892905472790986 -4.911104148068627 4.5351258825589094e-7 -10.344779434243163 -0.5522059711342152 5.133710262233189 -10.27989005154284 10.923435155365956 -5.781593579523718 -4.14809915001354 -5.758157929763177 4.454540539806385 0.000006219160221081804 -7.234142324492689 -9.401365482240145e-7 1.6662119428655011 3.109005838867808 2.3750207113072066 1.118390870739916 1.5107201480364603 1.0343170813822968 0 0 0 -17.426935667719455 0.8677279693715682 -13.410228091016803 -16.105296479140215 4.434161206528654 -68.93930310877286 -0.03530842129953031 -0.0000030580370689120486 0.00045834163891948884 -1.7139773158894547 -32.4824863682597 -4.528640852245733 -1.01049282543186 0.044325197391028325 -7.764430969184274 1.5282002013674112 0.23311990876386704 -17.34771066262803 0.7137094640988328 0.04991995464395142 -8.005369501042995 2.4853539214608165 -0.1033396242210712 -15.974426161345653 1.5331078173058332 0.23466173009382973 -17.40516107205966 1.6189056132012294 0.26238306093959857 -18.412850700555765 5.21824195996432 0.8512537271981012 -27.289791392079078 1.5329257223526942 0.23459310746163983 -17.403033732239294 1.455897476551023 0.21111699591040048 -16.503044220595854 3.3759491958406387 0.08479510861213567 -21.397861693350993 1.8296467008490496 0.3376853069123076 -20.91404336944733 1.5716611334215378 0.2469087409718066 -17.85723182097408 2.3566446444872953 -0.584332866219234 4.83975575407864 26.198266422730715 10.744620641544316 21.93487016802733 3.785548341680761 -13.787079155810819 8.09215859156479 0.8204703373037833 6.660717005840764 2.3495845907270563 -0.5942786611650597 -7.465747332087126 10.25317632391252 0 0 0 0 0 0 0 0 0 14.066743131305614 1.3874435964148402 13.526425426129329 -6.888187187426555 -0.7957686618929203 62.12091442976539 38.80704777682662 0.16336635345094408 -0.463828611323157 2.180615945239933 -20.811457889212203 -6.723886002556059 4.219281973534371 1.1241197630104196 -7.01726678252441 -1.0900409037444692 0.1544724524359254 16.13063858365774 -0.4626069144628728 0.027362614306666574 6.771780801194821 -0.1425069088817222 -0.0076886269113877566 1.5503172230496083 -1.1173393316210842 0.16246428458621825 16.545930795817732 -1.1837991544005255 0.18286253716981077 17.56119985845067 -3.2391807686318987 0.04506042012110407 16.700120880303324 -1.2892847643356655 0.21789465880282677 19.1840764467385 -1.2292608627222004 0.19753754630413514 18.25865196822186 -1.0249486827971004 -0.3471991299476441 13.144113013182707 -1.4520925954977029 0.2786105706849389 21.72128878935539 -1.2549289601139073 0.2061297508153404 18.653935554601453 1.265940726869391 -2.2910978092374736 -4.672457937100903 -26.538672915751228 9.61124896582965 -20.94620234627407 -5.40781419038157 -14.822985234210167 -11.750478730491913
0.037324659526348114 -0.14918838255615263 0.04893336445093155 -2.8850673448849524 -3.7592074726757736 -4.655176140666791 14.90122481637198 -13.789520435661622 8.354022945539093 -0.41287303973992995 17.942095081348562 4.115954855567305 0.38831175909732646 -1.6085814788060204 -6.961344937127163 0.000003313335402285872 -4.911734841218492 -4.842371801271259e-8 -10.346645823937301 -0.5138273443948977 5.082432721057841 -10.27347939074716 10.80491070893183 -5.753335172277301 -4.0862317580152 -5.6991230412936 4.426315883388962 -0.000015393803118442873 -7.237605490181308 0.0000010594210662156308 1.6582242901425035 3.1190967624909933 2.381727138993492 1.0847048838432147 1.5422040858278872 1.078435094494292 0 0 0 -17.420521637860876 0.8820837658537776 -13.312683794066116 -16.579733878482983 4.22857904554941 -68.98538727874848 -0.3081226117877425 0.000009536255981876858 0.0039766129179986025 -1.8836774357198338 -32.760990370543475 -4.477888829697293 -1.021548075403493 0.03862591329621938 -7.72847530977612 1.5334648440384968 0.2347565798056728 -17.40927905246902 0.7191628394854994 0.05069862318993974 -8.06698766772394 2.449624823777384 -0.11297848573864448 -15.954082464272382 1.5351754206958061 0.23530222579761512 -17.429386118503604 1.620968945428972 0.2630662471214819 -18.437188118214287 5.204206246967376 0.836561303711643 -27.22896916474342 1.5343338946316571 0.2350374470152338 -17.41953050898475 1.4573154607840493 0.21154128427800076 -16.5195433590534 3.3637251651044955 0.08184895275681361 -21.292560825147874 1.8295904838385457 0.3376557444864132 -20.91339862787374 1.571670201437935 0.24690604622371426 -17.857383585434253 2.2777552737117452 -0.6308848785041475 4.828756556399302 26.136649902146168 10.721336437240987 21.928225452265902 3.7814993713197533 -13.788076059947478 8.092098628287976 0.6780244208847511 6.692542100784997 2.357527926878253 -1.0334230404521554 -6.992336506282477 9.998054187369215 0 0 0 0 0 0 0 0 0 14.330014994981939 1.3340495414423272 13.83420672888617 1.8851956533298202 1.0675539546433415 60.689750553287965 25.23358028603226 0.07062662850298566 -0.31550257062087006 3.7642987795194074 -20.63575338974836 -4.536879675620961 5.522687303552927 1.6069946493748406 -10.0553169072408 -1.088744863796833 0.15411530695253534 16.111129521082287 -0.46127162645977865 0.027189333254901898 6.752260091880175 0.44721095986291287 0.18157042426314474 -2.807129821512936 -1.1136435287469524 0.16137649257576236 16.48972354332308 -1.1802704379682791 0.18174226041332067 17.507227421844092 -2.50695713839854 -0.11957815627838356 10.205480967349397 -1.272406907740434 0.21204928306824145 18.923271030956364 -1.2116140533376716 0.1917714459837081 17.987556689685796 -0.03473383424870329 -0.35642358104702077 9.103577552580914 -1.4241635187355575 0.2676138144927768 21.283014251289845 -1.2257510615405667 0.19638497175197941 18.20477543359063 0.08964052785081433 -1.7636671828827366 -4.75599837495481 -23.7046667096051 8.576838635058946 -20.18802821526071 -6.501142592007991 -14.316333791124205 -11.857068686306016
0.03657303377985954 -0.14815078489990263 0.0489095039665699 -2.9146032079710844 -3.7580720728584804 -4.623337955827688 14.900772127730582 -13.727255985096873 8.32669164156215 -0.3751676061892433 17.84585175164148 4.130751266895784 0.38827506379891785 -1.567553101353963 -6.965877660215874 0.0000033485421800815336 -4.911845383965173 -4.782360684953466e-7 -10.346715680468497 -0.49900722932356595 5.050562428656658 -10.27108247226175 10.758954419625152 -5.739849804573534 -4.051611861868492 -5.677286980994428 4.412521446450277 -0.000006316712386453769 -7.242381156653275 0.0000018007230883179064 1.6580331367922971 3.123624638213173 2.3868491641286482 1.08299752227548 1.5556784626006266 1.1077320404110367 0 0 0 -17.400245382620056 0.889703219027844 -13.259656325275982 -16.847585242543587 4.116047977489202 -69.01478486745921 -0.45107147511438356 0.000029159305778330814 0.0058159018894743215 -1.9832434722404382 -32.9143751676342 -4.420090324070612 -1.0349807049737498 0.03106724035911479 -7.689331350580161 1.5337002658787757 0.23483664843774635 -17.412092759175263 0.719411524433092 0.050734034799812214 -8.06975241532922 2.451893186291495 -0.11171394448597963 -15.928513219002744 1.5353779837993289 0.23537071503003032 -17.431766697018823 1.6211712008658101 0.2631398325134495 -18.43951327016542 5.180730471159099 0.8198424022389559 -27.190823930886964 1.533367456494973 0.23472923213904168 -17.408210287489865 1.4563445461048674 0.21125605523765295 -16.50821584566574 3.3567857416873053 0.07878428922153602 -21.31372543775199 1.829551656266716 0.33764659294123134 -20.91288138992538 1.5716821498829499 0.24691074202237057 -17.857599566015253 2.2358980593777753 -0.6546759780466993 4.837895604697745 26.11265329735804 10.712292621297266 21.925636770886328 3.7793708346046024 -13.788619348120786 8.092097795094002 0.6050554760700335 6.703793944876833 2.3490487233017268 -1.1863337029753662 -6.7328106149604485 9.78287863144051 0 0 0 0 0 0 0 0 0 14.493974107892582 1.2971690702754877 14.041483695135323 5.734587746272414 2.4277639120900885 60.459343801159896 20.58449954309957 0.04725061703878621 -0.26021065070791244 3.5379002122034597 -20.41827552717633 -2.4018525123896453 5.491430652601351 1.5998119208071906 -10.03183101256357 -1.0885183106259522 0.15403519868248708 16.1075141421644 -0.4610311093690824 0.027185002687696958 6.748644683156241 0.44831139246868806 0.17584712478354197 -2.67630864132341 -1.116680288058078 0.16227641360901027 16.535992566044307 -1.183309298870971 0.18269303555813127 17.553577719484732 -2.3846973176656032 -0.15057049294347338 9.983475711107209 -1.2668721528183151 0.21017035464245049 18.838112317355243 -1.2057962448606614 0.18988183432094058 17.89830390827279 0.13651465659003445 -0.3777582750072472 9.001300855351708 -1.4237720322395406 0.26745802578442424 21.276900570037586 -1.2251722532446903 0.19621056078070942 18.19585764402625 0.07863575849209818 -1.7318424786873634 -5.074649892312833 -23.35608799711439 8.447656884996128 -20.100711748762404 -6.548005790451747 -14.294591903911694 -11.861935421923862
